PathFileType	4	(X/Y/Z)	Patient4_TMGait_0pt4_01_right_15.trc.trc
DataRate	CameraRate	NumFrames	NumMarkers	Units	OrigDataRate	OrigDataStartFrame	OrigNumFrames
76.923076923077	76.923076923077	6	33	mm	76.923076923077	53	       141
Frame#	Time	Sacral			L.Shoulder			Chest			R.Shoulder			Neck			R.ASIS			L.ASIS			R.Thigh.Superior			R.Thigh.Lateral			R.Thigh.Inferior			R.Patella			L.Thigh.Superior			L.Thigh.Lateral			L.Thigh.Inferior			L.Patella			L.Shank.Superior			L.Shank.Lateral			L.Shank.Inferior			R.Shank.Superior			R.Shank.Lateral			R.Shank.Inferior			R.Heel			R.Midfoot.Superior			R.Midfoot.Lateral			R.Toe			L.Heel			L.Midfoot.Lateral			L.Midfoot.Superior			L.Toe			L.Elbow			L.Wrist			R.Elbow			R.Wrist			
		X1	Y1	Z1	X2	Y2	Z2	X3	Y3	Z3	X4	Y4	Z4	X5	Y5	Z5	X6	Y6	Z6	X7	Y7	Z7	X8	Y8	Z8	X9	Y9	Z9	X10	Y10	Z10	X11	Y11	Z11	X12	Y12	Z12	X13	Y13	Z13	X14	Y14	Z14	X15	Y15	Z15	X16	Y16	Z16	X17	Y17	Z17	X18	Y18	Z18	X19	Y19	Z19	X20	Y20	Z20	X21	Y21	Z21	X22	Y22	Z22	X23	Y23	Z23	X24	Y24	Z24	X25	Y25	Z25	X26	Y26	Z26	X27	Y27	Z27	X28	Y28	Z28	X29	Y29	Z29	X30	Y30	Z30	X31	Y31	Z31	X32	Y32	Z32	X33	Y33	Z33	

53	20.006000000000	767.788758257936	1009.999617487004	500.056374111043	912.085821263757	1434.726204907265	292.612183137812	1048.826874592642	1368.739459185646	427.918813519635	1005.374647244481	1444.036927202900	615.984419185188	930.984777037833	1496.609032026282	459.219655215531	1011.436206232036	941.321056598477	577.149641261204	953.471745248571	967.484637794701	310.356545192405	1032.909022217114	734.940088417174	544.809516332927	949.415894826457	630.401324436460	612.741325716009	1013.637090464843	573.825697348047	526.103168631890	1006.214673842937	486.663380680682	531.818457505552	1041.638369894331	784.859172632766	330.861667419281	993.653907040005	658.982462491833	253.544322045748	1103.833500485689	598.588262072298	304.398532232644	1119.504700427969	511.593559162064	292.565953307217	1059.632431663981	442.051015931513	286.533871887234	919.861013261325	383.094657249447	253.598982942897	934.236381209339	249.540875380382	297.675540810879	972.829351578321	399.962027138630	539.972671159340	897.848707545834	300.337787055347	603.146154071937	929.165000852616	203.799818132149	536.383870483796	783.847060831466	43.411369306981	509.675821011253	956.456476167419	96.132181532581	541.902991217491	868.508990565994	36.869670023981	582.349322721283	1076.822955051699	40.203681073309	568.001269457360	764.184422208662	157.034345349762	357.015907501182	813.025808641613	124.554695194027	265.475038955642	918.403832584640	143.963345655013	271.816681672026	1002.552786682621	44.643046068078	222.943390766278	845.185635581588	1083.225165045576	193.109034229400	952.765934662399	848.703440806486	143.906008334892	1072.403638078335	1107.333634989955	740.770177972459	1304.072994634425	1041.359327994722	658.167448468118	
54	20.019000000000	766.462015774643	1011.125066723247	501.417635206720	910.879872410590	1434.764128303398	292.579154870968	1048.538879730461	1368.493585909484	426.832169026664	1007.045607031919	1444.332813028653	615.167834115362	931.140369047847	1496.816921800197	458.942431436155	1010.431928371717	941.173244466037	576.671098737691	950.820246673807	968.022875922855	310.318475812977	1029.808138673067	734.435525218347	544.238799648679	945.796570409948	630.606244008404	612.974416174905	1008.796804484172	573.417346009177	526.065281618033	1000.765732962967	486.710360545151	532.005411524466	1039.149038381495	786.246819493689	330.876786616995	991.949340841397	660.304913036999	253.236691990552	1102.220804611401	600.465399373346	304.513234721728	1119.111084836385	514.419486930051	292.147142499788	1061.792243372951	443.995587620027	285.357500562699	924.820508474006	379.249518874965	252.000402412830	945.314248553423	245.941888252111	294.920638655867	967.499514170850	400.093427926107	540.257045663265	892.669461218943	300.467071308168	603.632349790663	923.861215508038	203.912204096861	536.723882392439	778.601327462385	43.479158450208	509.841243904031	951.227452740682	96.106505302673	542.106359162305	863.284106343889	36.839066566623	582.487914188856	1071.585201848775	40.118502106948	568.053743324558	779.870582555335	144.546543767727	353.727430347899	830.129629661270	115.671971715350	261.715282449221	934.445349377879	140.262781570949	268.113088622897	1023.525451904961	46.084581608529	217.961527393996	840.662870745786	1082.073101833782	198.923091811786	936.282843161085	841.096171508531	156.638709556933	1076.686125228106	1108.074174614324	738.812693733381	1309.062801633649	1050.864274290622	652.988784919117	
55	20.032000000000	765.114173018954	1012.239169378601	502.577525312109	909.803639124641	1434.752789077171	292.357101336596	1048.299925860546	1368.166949746001	425.607668699716	1008.699639715463	1444.555384511624	614.177479932158	931.349274175104	1496.980488935402	458.460513089333	1009.365114901990	940.988276083832	576.095974623717	948.238904663946	968.491140116877	310.151621332348	1026.688454423919	733.919293438400	543.663147015585	942.104251066651	630.813458927626	613.163643075540	1003.925150887959	573.011750707960	526.032500053397	995.301629289759	486.788478359031	532.195752051958	1036.456618591874	787.326528076686	330.861881049362	990.001788123773	661.411736263243	252.803570505812	1100.134585362702	601.966820085574	304.738475375695	1118.257820272725	517.003278685174	291.823075534544	1063.626437502957	445.782457469999	284.274935627345	929.985699386831	375.106210618064	249.996294901676	956.605445847693	242.379078204659	292.070188669514	962.144549594719	400.241749759256	540.517656351783	887.484154174895	300.612165477851	604.109085608200	918.544081612367	204.042678852902	537.056442254569	773.352177705779	43.567505817441	510.004010228965	946.008791546765	96.083470102994	542.308441899005	858.062781382548	36.810254863752	582.624185888416	1066.347367470739	40.028092483234	568.102389114403	796.087920250314	132.229621055414	349.735903630159	847.987043920118	106.903266532791	257.580043163573	950.935599424469	136.689115268863	264.462440961467	1044.943420349367	47.813863495434	213.677263389017	835.743259050540	1081.269442191308	204.173812203622	919.820916159460	834.926017414070	168.886485770116	1080.714651710342	1108.721068714595	736.694837023505	1313.423792753299	1059.815191841924	647.861659138834	
56	20.045000000000	763.747341042771	1013.318258545796	503.520604250870	908.851821301741	1434.688709103309	291.946355919767	1048.097494517074	1367.757748058794	424.255066616418	1010.303455777653	1444.689872152537	613.025359462568	931.599843263752	1497.092671967688	457.775073687221	1008.241860466679	940.761835697781	575.436923337183	945.738020465064	968.873804222373	309.853504284118	1023.567869630569	733.386095881522	543.106749383486	938.344243129638	631.012986440165	613.304698641149	999.056010333556	572.602434368187	526.013839667013	989.856185305987	486.883781411115	532.384612613531	1033.596355524310	788.102382246649	330.823842424085	987.863703231856	662.306724040484	252.244578733610	1097.641548847703	603.101231845491	305.043468415777	1117.009433321601	519.341845025174	291.590795577258	1065.152249229105	447.423325848950	283.326577727015	935.353848958228	370.828000173741	247.613703246155	967.946451946031	239.027161420136	289.223206677051	956.782350886175	400.397228984735	540.748328818469	882.299676563862	300.768208413889	604.564393641131	913.223887934405	204.186513064319	537.372443593659	768.098947448146	43.672923001255	510.162492044916	940.798306613004	96.062485819584	542.503570210645	852.843356454850	36.783973986329	582.756097588634	1061.108949076721	39.936368303636	568.147662376030	812.591116300707	120.432694681558	345.144813733264	866.351028504068	98.561583931330	253.191393616016	967.621297975494	133.460941823251	260.993645730999	1066.460562447419	49.975146547158	210.267097058913	830.405870899104	1080.817489920899	208.834007829769	903.550149122438	830.140362369232	180.480266734736	1084.501143634566	1109.261774354899	734.435634769181	1317.220702328857	1068.121472008552	642.814183141977	
57	20.058000000000	762.368690913767	1014.342748266935	504.234656323234	908.016183476235	1434.574794777780	291.350355888864	1047.919348179709	1367.269511305302	422.783957469896	1011.828570472704	1444.726840346594	611.724330665634	931.879384282295	1497.150053863027	456.892458119409	1007.072202684989	940.492268064394	574.706195830263	943.327084812822	969.158361628419	309.420935664683	1020.455773150770	732.832296902154	542.586198075018	934.518570367341	631.198740075475	613.394721764410	994.209705747838	572.185020829272	526.013353589648	984.449443632487	486.983662482515	532.566394901948	1030.609348701503	788.583867449327	330.755389198915	985.566716896452	662.988003241619	251.565503297776	1094.806348354902	603.876328656588	305.372924675573	1115.415308154882	521.429406715594	291.436340990615	1066.376811852660	448.920746763310	282.537799156440	940.884322219415	366.550114162859	244.910805263365	979.167489469580	236.009123531652	286.473928651486	951.420116076302	400.553697623281	540.944290064979	877.113798588943	300.931264562290	604.985451454421	907.908766024477	204.340803956034	537.663994838116	762.842221369460	43.789862622765	510.314975129288	935.594020574498	96.043403250471	542.686674256625	847.624250704562	36.761029851186	582.881501208062	1055.869554505413	39.847245196770	568.190238072184	829.131850881465	109.407002415494	340.101312986250	884.956091063343	90.873361790930	248.692941262142	984.247665382247	130.733647410476	257.821146028737	1087.749201177304	52.665764987026	207.848084511104	824.659596666861	1080.721809391436	212.887223128654	887.628879194273	826.651535619433	191.253881550750	1088.052489103023	1109.688864820819	732.053294292164	1320.517881085574	1075.703075052897	637.872162658960	
58	20.071000000000	760.990341462093	1015.296284919119	504.710811227012	907.285759895291	1434.418456644532	290.575063130676	1047.753515606831	1366.709646459562	421.203344379088	1013.250952375973	1444.661246481788	610.287199155715	932.173903054551	1497.151593203976	455.823990425687	1005.870684341787	940.179877665683	573.914209505684	941.015642774854	969.334629277441	308.849830853136	1017.355143960518	732.255843219846	542.108749985582	930.628597695659	631.368425285332	613.432023189941	989.393961035175	571.757246970104	526.029647617605	979.088402354669	487.077049761203	532.734840675358	1027.542580717333	788.783060747962	330.635963849147	983.123004276928	663.443797166542	250.779998350275	1091.690556667074	604.295083540648	305.655877959840	1113.509606735666	523.253195701648	291.338685355218	1067.296617443263	450.264396133955	281.917368813610	946.495253118475	362.372390790073	241.978661158117	990.095845554106	233.390933753206	283.906750523016	946.056436465824	400.708329555633	541.102334151551	871.917168443025	301.098333713997	605.359768677124	902.603710993119	204.504216944714	537.925044457542	757.583371813354	43.911500636818	510.459421342845	930.394618756144	96.026685775994	542.853756686860	842.403928354232	36.742227257856	582.998383208557	1050.628922256310	39.764318310157	568.230877151336	845.466463485745	99.305148138785	334.793351217932	903.517746695901	83.974068523574	244.242777980596	1000.559377422506	128.590311194194	255.035743954544	1108.493631562059	55.919218857590	206.459913812153	818.544228654698	1080.983640125023	216.327558610443	872.197168543397	824.343216953801	201.048882584657	1091.369612847042	1109.999196411335	729.565966004477	1323.376310384353	1082.493230018644	633.058685396043	
